<svg xmlns="http://www.w3.org/2000/svg" width="1800" height="1180" viewBox="0 0 1800 1180">
  <defs>
    <style>
      .bg { fill: #ffffff; }
      .title { font: 700 52px "Microsoft YaHei", "SimHei", Arial, sans-serif; fill: #111827; }
      .root { fill: #1d4ed8; stroke: #1e40af; stroke-width: 3; }
      .role { fill: #dbeafe; stroke: #2563eb; stroke-width: 3; }
      .module { fill: #ffffff; stroke: #64748b; stroke-width: 2.6; }
      .sub { fill: #f8fafc; stroke: #cbd5e1; stroke-width: 2.2; }
      .rootText { font: 700 40px "Microsoft YaHei", "SimHei", Arial, sans-serif; fill: #ffffff; text-anchor: middle; dominant-baseline: middle; }
      .roleText { font: 700 38px "Microsoft YaHei", "SimHei", Arial, sans-serif; fill: #1d4ed8; text-anchor: middle; dominant-baseline: middle; }
      .moduleText { font: 700 36px "Microsoft YaHei", "SimHei", Arial, sans-serif; fill: #111827; dominant-baseline: middle; }
      .subText { font: 32px "Microsoft YaHei", "SimHei", Arial, sans-serif; fill: #374151; text-anchor: middle; dominant-baseline: middle; }
      .line { stroke: #94a3b8; stroke-width: 3; fill: none; stroke-linecap: round; }
    </style>
  </defs>

  <rect class="bg" width="1800" height="1180"/>
  <text class="title" x="900" y="68" text-anchor="middle">健身房管理系统功能结构图</text>

  <rect class="root" x="690" y="112" width="420" height="86" rx="16"/>
  <text class="rootText" x="900" y="156">健身房管理系统</text>

  <path class="line" d="M900 198 V252"/>
  <path class="line" d="M480 252 H1320"/>
  <path class="line" d="M480 252 V308"/>
  <path class="line" d="M1320 252 V308"/>

  <rect class="role" x="310" y="308" width="340" height="78" rx="16"/>
  <text class="roleText" x="480" y="348">用户端</text>
  <rect class="role" x="1150" y="308" width="340" height="78" rx="16"/>
  <text class="roleText" x="1320" y="348">管理员端</text>

  <rect class="module" x="90" y="452" width="780" height="104" rx="14"/>
  <text class="moduleText" x="135" y="505">登录功能</text>
  <rect class="sub" x="590" y="477" width="220" height="54" rx="10"/>
  <text class="subText" x="700" y="505">会员登录</text>

  <rect class="module" x="90" y="594" width="780" height="132" rx="14"/>
  <text class="moduleText" x="135" y="661">个人信息管理</text>
  <rect class="sub" x="500" y="630" width="160" height="58" rx="10"/>
  <text class="subText" x="580" y="660">查看信息</text>
  <rect class="sub" x="690" y="630" width="160" height="58" rx="10"/>
  <text class="subText" x="770" y="660">修改信息</text>

  <rect class="module" x="90" y="766" width="780" height="132" rx="14"/>
  <text class="moduleText" x="135" y="833">课程浏览</text>
  <rect class="sub" x="530" y="802" width="280" height="58" rx="10"/>
  <text class="subText" x="670" y="832">查看课程列表</text>

  <rect class="module" x="90" y="938" width="780" height="154" rx="14"/>
  <text class="moduleText" x="135" y="1017">我的课程</text>
  <rect class="sub" x="282" y="974" width="172" height="60" rx="10"/>
  <text class="subText" x="368" y="1005">报名课程</text>
  <rect class="sub" x="482" y="974" width="216" height="60" rx="10"/>
  <text class="subText" x="590" y="1005">已报名课程</text>
  <rect class="sub" x="694" y="974" width="172" height="60" rx="10"/>
  <text class="subText" x="780" y="1005">课程评分</text>

  <rect class="module" x="990" y="432" width="720" height="92" rx="14"/>
  <text class="moduleText" x="1035" y="479">管理员登录</text>
  <rect class="sub" x="1405" y="450" width="245" height="56" rx="10"/>
  <text class="subText" x="1528" y="479">账号密码登录</text>

  <rect class="module" x="990" y="552" width="720" height="92" rx="14"/>
  <text class="moduleText" x="1035" y="599">会员管理</text>
  <text class="subText" x="1438" y="599">查询 / 新增 / 修改 / 删除</text>

  <rect class="module" x="990" y="672" width="720" height="92" rx="14"/>
  <text class="moduleText" x="1035" y="719">员工管理</text>
  <text class="subText" x="1438" y="719">查询 / 新增 / 修改 / 删除</text>

  <rect class="module" x="990" y="792" width="720" height="92" rx="14"/>
  <text class="moduleText" x="1035" y="839">课程管理</text>
  <text class="subText" x="1438" y="839">查询 / 新增 / 修改 / 删除</text>

  <rect class="module" x="990" y="912" width="720" height="92" rx="14"/>
  <text class="moduleText" x="1035" y="959">报名记录管理</text>
  <text class="subText" x="1438" y="959">查询 / 筛选 / 评分查看</text>

  <rect class="module" x="990" y="1032" width="340" height="88" rx="14"/>
  <text class="moduleText" x="1035" y="1077">器材管理</text>
  <text class="subText" x="1255" y="1077">增删改查</text>

  <rect class="module" x="1370" y="1032" width="340" height="88" rx="14"/>
  <text class="moduleText" x="1415" y="1077">运营分析</text>
  <text class="subText" x="1635" y="1077">统计分析</text>
</svg>
